<svg width="20" height="20" viewBox="0 0 20 20" fill="none" xmlns="http://www.w3.org/2000/svg">
<path d="M13.2751 9.5475L6.30887 2.91C6.19263 2.79919 6.03821 2.73738 5.87762 2.73738C5.71703 2.73738 5.5626 2.79919 5.44637 2.91L5.43887 2.9175C5.38233 2.97122 5.3373 3.03587 5.30653 3.10754C5.27577 3.17921 5.2599 3.25638 5.2599 3.33438C5.2599 3.41237 5.27577 3.48954 5.30653 3.56121C5.3373 3.63288 5.38233 3.69753 5.43887 3.75125L11.9989 10.0013L5.43887 16.2488C5.38233 16.3025 5.3373 16.3671 5.30653 16.4388C5.27577 16.5105 5.2599 16.5876 5.2599 16.6656C5.2599 16.7436 5.27577 16.8208 5.30653 16.8925C5.3373 16.9641 5.38233 17.0288 5.43887 17.0825L5.44637 17.09C5.5626 17.2008 5.71703 17.2626 5.87762 17.2626C6.03821 17.2626 6.19263 17.2008 6.30887 17.09L13.2751 10.4525C13.3364 10.3941 13.3852 10.3239 13.4185 10.2461C13.4518 10.1684 13.469 10.0846 13.469 10C13.469 9.91538 13.4518 9.83164 13.4185 9.75386C13.3852 9.67608 13.3364 9.60587 13.2751 9.5475Z" fill="#232323"/>
</svg>
